<svg width="924" height="151" viewBox="0 0 924 151" fill="none" xmlns="http://www.w3.org/2000/svg">
    <path
        d="M108.581 39.4388H113.798L128.672 23.9708L129.401 17.4011C101.719 -8.01212 59.4726 -5.26676 35.0368 23.5221C28.2474 31.5125 23.3274 41.0304 20.6362 51.3282C22.2899 50.6232 24.1285 50.5057 25.8541 51.0077L55.6003 45.9016C55.6003 45.9016 57.1102 43.2951 57.9011 43.4553C71.1308 28.3398 93.3993 26.5773 108.683 39.4388H108.581Z"
        fill="#EA4335" />
    <path
        d="M149.861 51.3278C146.441 38.2313 139.426 26.4594 129.668 17.4648L108.796 39.1713C117.609 46.6596 122.632 57.9509 122.416 69.7869V73.6432C132.677 73.6432 140.997 82.2959 140.997 92.9675C140.997 103.639 132.677 112.292 122.416 112.292H85.2539L81.5459 116.202V139.382L85.2539 143.239H122.416C149.101 143.452 170.908 121.126 171.113 93.3734C171.236 76.5167 163.255 60.7496 149.861 51.3278V51.3278Z"
        fill="#4285F4" />
    <path
        d="M48.0403 142.994H85.2025V112.058H48.0403C45.3903 112.058 42.7814 111.459 40.3676 110.316L35.1497 112.004L20.1739 127.472L18.8694 132.899C27.2612 139.501 37.5121 143.047 48.0403 142.994Z"
        fill="#34A853" />
    <path
        d="M48.0405 42.643C21.3449 42.8032 -0.153249 65.4391 0.000822996 93.2024C0.0932662 108.702 7.04705 123.295 18.8695 132.738L40.419 110.326C31.072 105.936 26.9121 94.4843 31.1336 84.7634C35.3552 75.0425 46.3662 70.7161 55.7133 75.1066C59.8321 77.0401 63.1292 80.4798 64.9987 84.7634L86.5482 62.3519C77.386 49.8749 63.1293 42.5789 48.0405 42.643V42.643Z"
        fill="#FBBC05" />
    <path
        d="M270.048 121.393C257.116 121.564 244.688 116.255 235.608 106.684C226.23 97.5184 220.992 84.6782 221.156 71.2933C221.002 57.9083 226.24 45.0789 235.608 35.9027C244.647 26.2352 257.085 20.8193 270.048 20.9261C282.394 20.7552 294.299 25.7439 303.081 34.7704L293.796 44.5982C287.438 38.1994 278.892 34.6956 270.048 34.8238C260.773 34.7063 251.868 38.6481 245.52 45.6771C238.925 52.4817 235.289 61.7967 235.443 71.4535C235.361 81.0035 238.997 90.1796 245.52 96.9095C258.955 110.839 280.617 111.106 294.371 97.5077C298.469 92.8502 300.975 86.9109 301.52 80.6296H270.202V66.7426H314.513C314.945 69.5414 315.119 72.3722 315.037 75.2137C315.592 87.0604 311.463 98.6294 303.605 107.239C294.864 116.693 282.661 121.842 270.048 121.393ZM373.071 112.164C360.714 124.481 341.219 124.481 328.862 112.164C322.874 106.128 319.608 97.7641 319.834 89.1007C319.608 80.4374 322.884 72.0731 328.862 66.0376C341.229 53.7529 360.704 53.7529 373.071 66.0376C379.049 72.0731 382.325 80.4374 382.099 89.1007C382.315 97.7748 379.018 106.139 373.019 112.164H373.071ZM338.62 103.105C344.999 110.198 355.702 110.562 362.522 103.917C362.789 103.65 363.056 103.383 363.303 103.105C366.785 99.3558 368.664 94.3137 368.521 89.1007C368.675 83.8771 366.795 78.803 363.303 75.0428C356.739 67.9284 345.872 67.6827 339.021 74.5087C338.846 74.6796 338.672 74.8612 338.507 75.0428C335.015 78.803 333.135 83.8771 333.289 89.1007C333.156 94.3137 335.056 99.3664 338.559 103.105H338.62ZM441.017 112.164C428.66 124.481 409.165 124.481 396.808 112.164C390.82 106.128 387.554 97.7641 387.78 89.1007C387.554 80.4374 390.83 72.0731 396.808 66.0376C409.165 53.7209 428.66 53.7209 441.017 66.0376C446.995 72.0731 450.271 80.4374 450.045 89.1007C450.281 97.7641 447.005 106.128 441.017 112.164ZM406.576 103.105C412.955 110.198 423.658 110.562 430.478 103.917C430.745 103.65 431.012 103.383 431.259 103.105C434.741 99.3558 436.62 94.3137 436.477 89.1007C436.631 83.8771 434.751 78.803 431.259 75.0428C424.695 67.9284 413.828 67.6827 406.987 74.5087C406.813 74.6796 406.638 74.8612 406.474 75.0428C402.981 78.803 401.102 83.8771 401.256 89.1007C401.122 94.3137 403.022 99.3664 406.525 103.105H406.576ZM485.687 150.375C479.432 150.577 473.3 148.548 468.308 144.617C463.878 141.152 460.388 136.551 458.18 131.264L470.075 126.104C471.369 129.266 473.392 132.044 475.97 134.191C478.723 136.498 482.185 137.716 485.728 137.609C490.268 137.898 494.706 136.114 497.89 132.727C501.033 128.786 502.584 123.722 502.224 118.616V113.948H501.752C497.715 118.926 491.665 121.639 485.42 121.276C477.501 121.297 469.931 117.879 464.549 111.833C458.714 105.84 455.489 97.6252 455.623 89.09C455.479 80.5121 458.704 72.244 464.549 66.1871C469.921 60.1196 477.491 56.6692 485.42 56.6906C488.738 56.6799 492.025 57.449 495.024 58.9125C497.623 60.0875 499.934 61.8501 501.813 64.072H502.286V58.9125H515.228V116.715C515.916 125.955 512.917 135.088 506.929 141.957C501.228 147.629 493.576 150.663 485.687 150.375V150.375ZM486.632 108.692C491.141 108.799 495.466 106.801 498.424 103.265C501.639 99.4305 503.344 94.4633 503.169 89.3678C503.364 84.1869 501.67 79.1341 498.424 75.203C495.466 71.6565 491.141 69.6696 486.632 69.7764C482 69.6803 477.552 71.6565 474.419 75.203C470.968 78.9952 469.088 84.048 469.201 89.261C469.099 94.4312 470.968 99.4305 474.419 103.159C477.532 106.737 481.979 108.756 486.632 108.692ZM538.246 24.5688V119.439H524.626V24.5688H538.246ZM575.614 121.393C567.366 121.618 559.406 118.253 553.643 112.11C547.799 106.022 544.604 97.7 544.82 89.1007C544.512 80.4801 547.583 72.0945 553.325 65.8667C558.748 59.9273 566.328 56.6371 574.196 56.7974C577.781 56.7546 581.325 57.481 584.632 58.9125C587.611 60.1623 590.323 62.0103 592.613 64.3391C594.585 66.3153 596.331 68.5159 597.831 70.9087C599.043 72.9277 600.07 75.0535 600.912 77.254L602.32 80.9501L560.576 98.811C563.165 104.985 569.133 108.874 575.604 108.585C581.859 108.607 587.662 105.199 590.898 99.6335L601.334 106.962C598.671 110.929 595.26 114.291 591.309 116.843C586.625 119.919 581.16 121.5 575.614 121.393ZM558.183 88.118L585.947 76.1217C585.094 74.0066 583.564 72.2654 581.612 71.1865C579.435 69.9046 576.97 69.253 574.463 69.285C570.221 69.4025 566.185 71.2506 563.247 74.4446C559.683 77.9911 557.824 83.0011 558.183 88.118Z"
        fill="#5F6368" />
    <path
        d="M673.676 121.394C649.928 121.821 630.35 102.144 629.94 77.4464C629.929 76.8482 629.929 76.2393 629.95 75.6411C629.395 50.9436 648.202 30.4656 671.94 29.8887C672.515 29.878 673.1 29.878 673.676 29.878C685.549 29.4935 696.951 34.7706 704.623 44.203L697.105 51.7982C691.466 44.4167 682.776 40.2826 673.727 40.6672C665.048 40.4642 656.656 43.9574 650.503 50.324C644.104 57.0218 640.684 66.1873 641.053 75.6198C640.673 85.0523 644.104 94.2177 650.503 100.916C656.656 107.293 665.048 110.775 673.727 110.572C683.834 110.69 693.438 106.011 699.816 97.871L707.335 105.691C703.401 110.583 698.461 114.493 692.883 117.142C686.864 120.048 680.301 121.5 673.676 121.394Z"
        fill="#5F6368" />
    <path d="M727.529 119.438H716.723V31.7793H727.529V119.438Z" fill="#5F6368" />
    <path
        d="M745.175 66.6791C756.957 54.5119 775.979 54.5119 787.761 66.6791C793.348 72.8214 796.358 81.0254 796.112 89.4752C796.358 97.9249 793.348 106.129 787.761 112.271C775.979 124.438 756.957 124.438 745.175 112.271C739.588 106.129 736.578 97.9249 736.825 89.4752C736.578 81.0254 739.577 72.8214 745.175 66.6791ZM753.208 105.221C760.12 112.816 771.645 113.147 778.958 105.958C779.205 105.723 779.441 105.467 779.667 105.221C783.478 100.969 785.491 95.297 785.255 89.4858C785.501 83.6747 783.488 78.0024 779.667 73.7508C772.754 66.1557 761.23 65.8245 753.916 73.0137C753.67 73.2487 753.434 73.5051 753.208 73.7508C749.397 78.0024 747.384 83.6747 747.62 89.4858C747.404 95.2864 749.438 100.937 753.259 105.168L753.208 105.221Z"
        fill="#5F6368" />
    <path
        d="M855.963 119.439H845.527V111.138H845.219C843.36 114.29 840.731 116.875 837.598 118.627C834.352 120.582 830.654 121.618 826.895 121.607C820.712 122.045 814.682 119.524 810.512 114.77C806.558 109.568 804.575 103.041 804.924 96.4289V59.5215H815.73V94.3672C815.73 105.552 820.475 111.138 829.976 111.138C834.26 111.277 838.337 109.258 840.936 105.712C843.74 102.026 845.23 97.4437 845.168 92.7435V59.5215H855.974V119.439H855.963Z"
        fill="#5F6368" />
    <path
        d="M892.653 121.393C885.237 121.415 878.18 118.071 873.342 112.217C867.929 106 865.033 97.8602 865.249 89.4745C865.033 81.0889 867.929 72.949 873.342 66.7319C878.18 60.8886 885.237 57.5344 892.653 57.5557C896.761 57.4917 900.819 58.4958 904.445 60.4827C907.639 62.1491 910.34 64.6809 912.271 67.8108H912.744L912.271 59.5106V31.7793H923.077V119.438H912.641V111.138H912.169C910.238 114.268 907.536 116.8 904.342 118.466C900.747 120.432 896.731 121.447 892.653 121.393V121.393ZM894.43 111.138C899.37 111.213 904.106 109.077 907.423 105.274C911.09 100.926 912.97 95.2537 912.641 89.4745C912.97 83.7061 911.09 78.0231 907.423 73.6754C900.87 66.1764 889.715 65.6316 882.505 72.4576C882.094 72.8422 881.703 73.2588 881.334 73.6754C877.657 77.991 875.777 83.6527 876.116 89.4104C875.777 95.1682 877.657 100.83 881.334 105.145C884.662 109.034 889.438 111.213 894.43 111.138Z"
        fill="#5F6368" />
</svg>