<svg xmlns="http://www.w3.org/2000/svg" xmlns:xlink="http://www.w3.org/1999/xlink" width="300" height="150"
  viewBox="0 0 300 150">
  <defs>
    <clipPath id="clip-logo-google-cloud-partner-full-colour">
      <rect width="300" height="150" />
    </clipPath>
  </defs>
  <g id="logo-google-cloud-partner-full-colour" clip-path="url(#clip-logo-google-cloud-partner-full-colour)">
    <g id="Google_Cloud_Partner_SureSkills" transform="translate(-43.573 -37.07)">
      <g id="Page-1" transform="translate(73.625 80.082)">
        <g id="googlecloud" transform="translate(0 0)">
          <g id="g4160">
            <g id="Group-8" transform="translate(140.14 2.594)">
              <path id="Fill-1"
                d="M.633,15.413A14.773,14.773,0,0,1,15.665.3,13.694,13.694,0,0,1,26.293,5.028L23.707,7.533a9.783,9.783,0,0,0-8.042-3.677c-6.1,0-11.234,4.445-11.234,11.557S9.563,26.971,15.665,26.971a11.7,11.7,0,0,0,8.891-4.2l2.586,2.586a14.9,14.9,0,0,1-11.477,5.173A14.773,14.773,0,0,1,.633,15.413h0Z"
                transform="translate(-0.633 -0.3)" fill="#E7EDF4" fill-rule="evenodd" />
              <path id="Fill-3" d="M97.533,31.282V2.348H93.815V31.282Z" transform="translate(-64.398 -1.701)"
                fill="#E7EDF4" fill-rule="evenodd" />
              <path id="Fill-5"
                d="M131.072,39.776c0-4.526-3.152-7.153-6.466-7.153s-6.466,2.627-6.466,7.153,3.152,7.153,6.466,7.153,6.466-2.627,6.466-7.153m3.718,0c0,6.021-4.243,10.547-10.183,10.547S114.422,45.8,114.422,39.776s4.243-10.547,10.184-10.547,10.183,4.526,10.183,10.547"
                transform="translate(-78.499 -20.096)" fill="#E7EDF4" fill-rule="evenodd" />
              <path id="Fill-6"
                d="M201.877,51.078V48.331h-.162a7.564,7.564,0,0,1-6.264,3.394c-5.092,0-7.557-3.435-7.557-8.325V31.277h3.718V42.794c0,4.122,2.061,5.536,4.89,5.536,3.233,0,5.213-3.112,5.213-6.142V31.277h3.718v19.8h-3.556Z"
                transform="translate(-128.777 -21.498)" fill="#E7EDF4" fill-rule="evenodd" />
              <path id="Fill-7"
                d="M269.243,21.381c0-4.526-2.991-7.153-6.3-7.153s-6.3,2.707-6.3,7.153,2.99,7.153,6.3,7.153,6.3-2.627,6.3-7.153m-16.326,0c0-6.062,4.4-10.547,9.416-10.547a7.923,7.923,0,0,1,6.749,3.395h.162l-.162-2.748V2.348H272.8V31.282h-3.556V28.534h-.162a7.922,7.922,0,0,1-6.749,3.394c-5.011,0-9.416-4.485-9.416-10.547"
                transform="translate(-173.272 -1.701)" fill="#E7EDF4" fill-rule="evenodd" />
            </g>
            <g id="Group-20">
              <path id="Fill-9"
                d="M.723-119.348a16.8,16.8,0,0,1,16.811-16.568A15.788,15.788,0,0,1,28.89-131.35L25.7-128.158a11.541,11.541,0,0,0-8.163-3.233A11.884,11.884,0,0,0,5.654-119.348a11.884,11.884,0,0,0,11.881,12.042A11.086,11.086,0,0,0,25.9-110.62a9.444,9.444,0,0,0,2.465-5.7H17.534v-4.526H32.769a14.764,14.764,0,0,1,.242,2.829c0,3.394-.929,7.6-3.92,10.587a15.147,15.147,0,0,1-11.557,4.647A16.8,16.8,0,0,1,.723-119.348h0Z"
                transform="translate(-0.723 135.917)" fill="#3F7EE8" fill-rule="evenodd" />
              <path id="Fill-11"
                d="M118.788-81.4a6.172,6.172,0,0,1-6.021-6.466,6.147,6.147,0,0,1,6.021-6.466,6.147,6.147,0,0,1,6.021,6.466,6.172,6.172,0,0,1-6.021,6.466m0-17.134A10.516,10.516,0,0,0,108.079-87.87,10.541,10.541,0,0,0,118.788-77.2,10.541,10.541,0,0,0,129.5-87.87a10.516,10.516,0,0,0-10.709-10.668"
                transform="translate(-74.187 110.339)" fill="#DE3F33" fill-rule="evenodd" />
              <path id="Fill-13"
                d="M192.788-81.4a6.172,6.172,0,0,1-6.021-6.466,6.147,6.147,0,0,1,6.021-6.466,6.147,6.147,0,0,1,6.021,6.466,6.172,6.172,0,0,1-6.021,6.466m0-17.134A10.516,10.516,0,0,0,182.079-87.87,10.541,10.541,0,0,0,192.788-77.2,10.541,10.541,0,0,0,203.5-87.87a10.516,10.516,0,0,0-10.709-10.668"
                transform="translate(-124.826 110.339)" fill="#EEB207" fill-rule="evenodd" />
              <path id="Fill-15"
                d="M266.769-81.4a6.122,6.122,0,0,1-5.94-6.425c0-3.758,2.708-6.506,5.94-6.506,3.192,0,5.7,2.748,5.7,6.506,0,3.718-2.506,6.425-5.7,6.425Zm5.374-16.488v1.738h-.161a7.393,7.393,0,0,0-5.617-2.384A10.611,10.611,0,0,0,256.14-87.83,10.565,10.565,0,0,0,266.364-77.2a7.273,7.273,0,0,0,5.617-2.425h.161v1.536c0,4.081-2.182,6.263-5.7,6.263a5.9,5.9,0,0,1-5.375-3.8l-4.082,1.7a10.167,10.167,0,0,0,9.456,6.3c5.5,0,10.143-3.233,10.143-11.113V-97.892Z"
                transform="translate(-175.507 110.339)" fill="#3F7EE8" fill-rule="evenodd" />
              <path id="Fill-17" d="M335.84-132.333v31.359h-4.688v-31.359Z" transform="translate(-226.837 133.464)"
                fill="#329F4E" fill-rule="evenodd" />
              <path id="Fill-19"
                d="M363.393-94.417a4.131,4.131,0,0,1,3.96,2.263l-9.537,3.96a5.851,5.851,0,0,1,5.576-6.223m.364,13.012a5.426,5.426,0,0,1-5.172-3.233l14.265-5.9-.485-1.213c-.889-2.384-3.6-6.789-9.133-6.789-5.5,0-10.062,4.324-10.062,10.669A10.44,10.44,0,0,0,363.757-77.2a10.611,10.611,0,0,0,8.89-4.728l-3.637-2.425a6.093,6.093,0,0,1-5.253,2.95"
                transform="translate(-241.904 110.339)" fill="#DE3F33" fill-rule="evenodd" />
            </g>
          </g>
        </g>
      </g>
      <path id="text4730"
        d="M1.709-14.346H8.164a4.376,4.376,0,0,1,3.086,1.079,3.916,3.916,0,0,1,1.172,3.032A4.408,4.408,0,0,1,11.377-7.31,3.959,3.959,0,0,1,8.164-6.064H3.652V0H1.709Zm8.75,4.121a2.158,2.158,0,0,0-1.172-2.148,4.231,4.231,0,0,0-1.768-.3H3.652v4.971H7.52a3.7,3.7,0,0,0,2.124-.557A2.206,2.206,0,0,0,10.459-10.225Zm5.518,7.441a1.448,1.448,0,0,0,.557,1.2,2.064,2.064,0,0,0,1.318.439,4.008,4.008,0,0,0,1.8-.43,2.418,2.418,0,0,0,1.465-2.334V-5.322a3.007,3.007,0,0,1-.83.342,7.073,7.073,0,0,1-1,.2l-1.064.137a4.071,4.071,0,0,0-1.436.4A1.56,1.56,0,0,0,15.977-2.783Zm4.258-3.555a.955.955,0,0,0,.811-.508,1.545,1.545,0,0,0,.117-.674,1.428,1.428,0,0,0-.64-1.3,3.432,3.432,0,0,0-1.831-.405,2.327,2.327,0,0,0-1.953.742,2.442,2.442,0,0,0-.42,1.221H14.678a3.02,3.02,0,0,1,1.255-2.69,5.152,5.152,0,0,1,2.8-.757,5.693,5.693,0,0,1,3,.7,2.385,2.385,0,0,1,1.143,2.188V-1.8a.771.771,0,0,0,.112.439.542.542,0,0,0,.474.166q.117,0,.264-.015t.313-.044v1.3A4.9,4.9,0,0,1,23.408.2a4.567,4.567,0,0,1-.586.029A1.446,1.446,0,0,1,21.5-.42a2.487,2.487,0,0,1-.3-.967A4.472,4.472,0,0,1,19.658-.166a4.773,4.773,0,0,1-2.217.518,3.3,3.3,0,0,1-2.378-.884,2.936,2.936,0,0,1-.923-2.212A2.849,2.849,0,0,1,15.049-5a4.321,4.321,0,0,1,2.383-.986ZM25.8-10.459h1.67v1.807a3.992,3.992,0,0,1,1.006-1.284,2.608,2.608,0,0,1,1.846-.757q.049,0,.166.01t.4.039v1.855a2.626,2.626,0,0,0-.288-.039q-.132-.01-.288-.01a2.508,2.508,0,0,0-2.041.854,2.983,2.983,0,0,0-.713,1.968V0H25.8Zm6.963-2.92h1.777v2.92h1.67v1.436h-1.67V-2.2a.739.739,0,0,0,.371.732,1.577,1.577,0,0,0,.684.107q.127,0,.273,0t.342-.024V0a3.924,3.924,0,0,1-.63.127,5.988,5.988,0,0,1-.708.039,1.908,1.908,0,0,1-1.67-.63A2.8,2.8,0,0,1,32.764-2.1V-9.023H31.348v-1.436h1.416Zm5.205,2.92h1.67v1.484a4.684,4.684,0,0,1,1.572-1.318,4.193,4.193,0,0,1,1.846-.4,3.043,3.043,0,0,1,3.008,1.553,5.514,5.514,0,0,1,.43,2.432V0H44.707V-6.592a3.569,3.569,0,0,0-.283-1.543,1.717,1.717,0,0,0-1.7-.977,3.46,3.46,0,0,0-1.025.127,2.641,2.641,0,0,0-1.27.859,2.587,2.587,0,0,0-.571,1.069,7.2,7.2,0,0,0-.132,1.577V0H37.969Zm15.479-.234a4.771,4.771,0,0,1,2.158.522A3.98,3.98,0,0,1,57.2-8.818a4.666,4.666,0,0,1,.7,1.846,12.076,12.076,0,0,1,.156,2.3H50.391a4.473,4.473,0,0,0,.752,2.554,2.518,2.518,0,0,0,2.178.962,2.815,2.815,0,0,0,2.2-.908,3.062,3.062,0,0,0,.664-1.221H57.91A3.64,3.64,0,0,1,57.456-2,4.567,4.567,0,0,1,56.592-.84,4.1,4.1,0,0,1,54.609.215a6.022,6.022,0,0,1-1.436.156A4.4,4.4,0,0,1,49.863-1.05a5.529,5.529,0,0,1-1.357-3.979,6.011,6.011,0,0,1,1.367-4.092A4.51,4.51,0,0,1,53.447-10.693Zm2.8,4.629a4.554,4.554,0,0,0-.5-1.826A2.553,2.553,0,0,0,53.34-9.16a2.674,2.674,0,0,0-2.031.874,3.3,3.3,0,0,0-.869,2.222Zm4.014-4.395h1.67v1.807a3.992,3.992,0,0,1,1.006-1.284,2.608,2.608,0,0,1,1.846-.757q.049,0,.166.01t.4.039v1.855a2.626,2.626,0,0,0-.288-.039q-.132-.01-.288-.01a2.508,2.508,0,0,0-2.041.854,2.983,2.983,0,0,0-.713,1.968V0H60.264Z"
        transform="translate(75.791 144.186)" fill="#E7EDF4" />
    </g>
  </g>
</svg>